<?xml version="1.0" encoding="utf-8"?>

<!DOCTYPE svg PUBLIC "-//W3C//DTD SVG 1.1//EN" "http://www.w3.org/Graphics/SVG/1.1/DTD/svg11.dtd">
<!-- Uploaded to: SVG Repo, www.svgrepo.com, Generator: SVG Repo Mixer Tools -->
<svg height="800px" width="800px" version="1.1" id="_x32_" xmlns="http://www.w3.org/2000/svg" xmlns:xlink="http://www.w3.org/1999/xlink" 
	 viewBox="0 0 512 512"  xml:space="preserve">
<style type="text/css">
	.st0{fill:#000000;}
</style>
<g>
	<path class="st0" d="M465.252,494.656c-0.084-2.217-1.292-5.443-2.684-7.17L72.629,3.846C71.236,2.119,68.311,0.388,66.127,0
		L49.396,5.903c-1.456,1.673-2.648,4.856-2.648,7.075v481.87c0,2.218,0.742,5.689,1.648,7.714l7.789,7.79
		c2.024,0.907,5.495,1.648,7.714,1.648h386.953c2.218,0,5.488-1.085,7.266-2.411L465.252,494.656z M105.926,441.758
		c0,2.218-0.242,4.538-0.538,5.155c-0.296,0.617-3.667,1.122-5.885,1.122H66.102c-2.218,0-4.571-0.228-5.228-0.505
		c-0.657-0.278-1.195-3.554-1.195-5.772v-1.645c0-2.218,0.242-4.538,0.538-5.155c0.296-0.617,3.666-1.122,5.885-1.122h33.401
		c2.218,0,4.57,0.227,5.228,0.505c0.657,0.278,1.195,3.554,1.195,5.772V441.758z M105.926,371.942c0,2.218-0.242,4.538-0.538,5.155
		c-0.296,0.617-3.667,1.122-5.885,1.122H66.102c-2.218,0-4.571-0.228-5.228-0.505c-0.657-0.278-1.195-3.554-1.195-5.772v-1.645
		c0-2.218,0.242-4.538,0.538-5.155c0.296-0.617,3.666-1.122,5.885-1.122h33.401c2.218,0,4.57,0.228,5.228,0.505
		c0.657,0.278,1.195,3.554,1.195,5.772V371.942z M105.926,302.125c0,2.218-0.242,4.538-0.538,5.155
		c-0.296,0.617-3.667,1.122-5.885,1.122H66.102c-2.218,0-4.571-0.227-5.228-0.505c-0.657-0.277-1.195-3.555-1.195-5.773v-1.644
		c0-2.218,0.242-4.538,0.538-5.155c0.296-0.617,3.666-1.122,5.885-1.122h33.401c2.218,0,4.57,0.228,5.228,0.505
		c0.657,0.278,1.195,3.554,1.195,5.772V302.125z M105.926,232.31c0,2.218-0.242,4.538-0.538,5.155
		c-0.296,0.617-3.667,1.122-5.885,1.122H66.102c-2.218,0-4.571-0.227-5.228-0.505c-0.657-0.278-1.195-3.554-1.195-5.772v-1.645
		c0-2.218,0.242-4.538,0.538-5.155c0.296-0.617,3.666-1.122,5.885-1.122h33.401c2.218,0,4.57,0.228,5.228,0.505
		c0.657,0.278,1.195,3.554,1.195,5.772V232.31z M105.926,162.493c0,2.218-0.242,4.538-0.538,5.155
		c-0.296,0.617-3.667,1.122-5.885,1.122H66.102c-2.218,0-4.571-0.227-5.228-0.505c-0.657-0.278-1.195-3.554-1.195-5.772v-1.644
		c0-2.218,0.242-4.538,0.538-5.155c0.296-0.617,3.666-1.122,5.885-1.122h33.401c2.218,0,4.57,0.227,5.228,0.504
		c0.657,0.278,1.195,3.555,1.195,5.773V162.493z M268.797,408.295c-1.778,1.326-5.048,2.41-7.266,2.41h-85.296
		c-2.218,0-5.689-0.742-7.714-1.648l-4.096-4.096c-0.906-2.025-1.648-5.496-1.648-7.714V289.516c0-2.218,1.192-5.401,2.649-7.074
		l10.143-3.58c2.184,0.388,5.11,2.118,6.502,3.844l88.299,109.518c1.392,1.727,2.6,4.953,2.684,7.17L268.797,408.295z"/>
</g>
</svg>