<svg xmlns="http://www.w3.org/2000/svg" width="8.691" height="8.72" viewBox="0 0 8.691 8.72">
  <g id="insta" transform="translate(0)">
    <g id="Group_23" data-name="Group 23">
      <path id="Path_731" data-name="Path 731" d="M2414.757,3708.118a1.94,1.94,0,0,1-3.881.006c0-.061,0-.12.01-.179h-2.436q0,1.408,0,2.816a1.706,1.706,0,0,0,1.7,1.691h5.3a1.7,1.7,0,0,0,1.69-1.686c0-.94,0-1.881,0-2.821h-2.385C2414.753,3708,2414.757,3708.06,2414.757,3708.118Z" transform="translate(-2408.447 -3703.732)" fill="#fff"/>
      <path id="Path_732" data-name="Path 732" d="M2417.129,3701.306c0-.384.012-.77,0-1.154a1.7,1.7,0,0,0-1.707-1.636h-3.574v2.134h-.453v-2.134h-.313v2.134h-.416v-2.133h-.362v2.132h-.457v-2.1a2.315,2.315,0,0,0-.711.308,1.612,1.612,0,0,0-.674,1.2c-.029.4-.014,1.77-.014,1.77v.088h2.705a1.939,1.939,0,0,1,3.324,0h2.653v-.605Zm-.787-.671a.318.318,0,0,1-.344.349h-1.042a.312.312,0,0,1-.338-.328c0-.364,0-.727,0-1.09a.308.308,0,0,1,.312-.331q.553-.012,1.1,0a.31.31,0,0,1,.308.334c0,.182,0,.364,0,.545S2416.344,3700.462,2416.343,3700.635Z" transform="translate(-2408.444 -3698.516)" fill="#fff"/>
    </g>
  </g>
</svg>
