<svg xmlns="http://www.w3.org/2000/svg" width="500" height="85.117" viewBox="0 0 500 85.117"><defs><style>
      .cls-1 {
        fill: #06bf5b;
      }
    </style></defs><g id="Logo_2" data-name="Logo 2" transform="translate(0 0)"><path id="Path_991" data-name="Path 991" class="cls-1" d="M1039.59,1168.669a6.575,6.575,0,0,1-4.858,1.908H978.806a27.073,27.073,0,0,0,9.347,17.215q7.73,6.552,18.909,6.552a27.77,27.77,0,0,0,9.186-1.677,27.031,27.031,0,0,0,7.875-4.112,7.461,7.461,0,0,1,4.855-1.677,6.186,6.186,0,0,1,4.418,1.524,6.733,6.733,0,0,1,2.647,5.187,5.579,5.579,0,0,1-2.352,4.573,40.431,40.431,0,0,1-12.44,6.7,43.526,43.526,0,0,1-35.831-2.815,38.516,38.516,0,0,1-14.937-15.007,43.808,43.808,0,0,1-5.372-21.787,46.381,46.381,0,0,1,5.086-21.873,37.443,37.443,0,0,1,14.13-15.082,39.226,39.226,0,0,1,20.53-5.409q11.335,0,19.574,5.187a33.835,33.835,0,0,1,12.657,14.474,49.132,49.132,0,0,1,4.417,21.323A6.492,6.492,0,0,1,1039.59,1168.669Zm-52.174-26.582q-6.7,6.095-8.462,16.3h49.009q-1.325-10.2-7.357-16.3t-15.75-6.095Q994.113,1135.992,987.416,1142.087Z" transform="translate(-838.24 -1122.612)"></path><path id="Path_992" data-name="Path 992" class="cls-1" d="M1676.629,1168.7a6.587,6.587,0,0,1-4.857,1.908h-55.926a27.082,27.082,0,0,0,9.344,17.215q7.729,6.552,18.913,6.552a27.783,27.783,0,0,0,9.186-1.677,26.976,26.976,0,0,0,7.875-4.112,7.471,7.471,0,0,1,4.857-1.677,6.206,6.206,0,0,1,4.415,1.524,6.743,6.743,0,0,1,2.65,5.187,5.576,5.576,0,0,1-2.355,4.573,40.441,40.441,0,0,1-12.437,6.7,43.516,43.516,0,0,1-35.831-2.815,38.534,38.534,0,0,1-14.94-15.007,43.806,43.806,0,0,1-5.373-21.788,46.367,46.367,0,0,1,5.08-21.862,37.426,37.426,0,0,1,14.127-15.082,39.253,39.253,0,0,1,20.532-5.409q11.332,0,19.575,5.187a33.821,33.821,0,0,1,12.657,14.474,49.206,49.206,0,0,1,4.415,21.324A6.489,6.489,0,0,1,1676.629,1168.7Zm-52.174-26.582q-6.7,6.1-8.462,16.3H1665q-1.325-10.2-7.36-16.3t-15.747-6.095Q1631.147,1136.021,1624.455,1142.115Z" transform="translate(-1294.156 -1122.641)"></path><path id="Path_993" data-name="Path 993" class="cls-1" d="M2011.625,1124.2a6.541,6.541,0,0,1,1.57,4.639,12.846,12.846,0,0,1-.746,4.487l-22.116,68.68a7.624,7.624,0,0,1-2.689,3.636,7,7,0,0,1-4.334,1.47,7.531,7.531,0,0,1-4.56-1.47,6.613,6.613,0,0,1-2.614-3.636l-14.646-56.149L1946.1,1202.01a7.623,7.623,0,0,1-14.345,0l-22.119-68.68a15.242,15.242,0,0,1-.6-4.322q0-6.495,6.278-6.5a6.725,6.725,0,0,1,4.707,1.7,12.294,12.294,0,0,1,3.063,5.415l16.145,52.129,15.244-53.368a8.549,8.549,0,0,1,2.617-4.252,7.113,7.113,0,0,1,4.854-1.626,6.911,6.911,0,0,1,4.708,1.626,8.6,8.6,0,0,1,2.614,4.252l13.45,54.46,16.438-53.212q2.093-7.114,7.771-7.118A6.034,6.034,0,0,1,2011.625,1124.2Z" transform="translate(-1513.196 -1122.337)"></path><path id="Path_994" data-name="Path 994" class="cls-1" d="M619.906,1132.268a30.38,30.38,0,0,0-45.93,2.135,27.651,27.651,0,0,0-1.882-2.135,30.609,30.609,0,0,0-22.027-9.477c-17.153,0-31.177,14.52-31.177,32.273v44.9a7.166,7.166,0,1,0,14.323,0l.157-44.17c-.1-9.28,6.9-16.987,15.851-17.459a16.9,16.9,0,0,1,17.483,15.7v.069a13.717,13.717,0,0,1,.092,1.689l.136,44.17a7.177,7.177,0,1,0,14.345,0v-44.165c.026-9.55,7.5-17.285,16.724-17.312,9.213.049,16.667,7.775,16.7,17.312v44.17h.025a7.177,7.177,0,1,0,14.345,0v-44.9a32.853,32.853,0,0,0-9.167-22.8Z" transform="translate(-518.89 -1122.54)"></path><path id="Path_995" data-name="Path 995" class="cls-1" d="M1351.264,1133.1a36.16,36.16,0,0,0-26.061-11.212c-20.3,0-36.914,17.193-36.914,38.184v39.257a7.583,7.583,0,0,0,6.665,7.635,7.455,7.455,0,0,0,8.02-6.086,7.656,7.656,0,0,0,0-3.1v-37.195c0-12.706,9.953-23.007,22.229-23.007s22.231,10.3,22.231,23.007v38.65a7.335,7.335,0,1,0,14.662,0v-39.18A38.792,38.792,0,0,0,1351.264,1133.1Z" transform="translate(-1069.562 -1121.89)"></path></g></svg>